<svg width="163" height="26" viewBox="0 0 163 26" fill="none" xmlns="http://www.w3.org/2000/svg">
<circle cx="55.5" cy="3.5" r="3.5" transform="rotate(90 55.5 3.5)" fill="#E60847"/>
<circle cx="38.5" cy="3.5" r="3.5" transform="rotate(90 38.5 3.5)" fill="#E60847"/>
<circle cx="20.5" cy="3.5" r="3.5" transform="rotate(90 20.5 3.5)" fill="#E60847"/>
<ellipse cx="73" cy="3.5" rx="3.5" ry="3" transform="rotate(90 73 3.5)" fill="#E60847"/>
<circle cx="3.5" cy="3.5" r="3.5" transform="rotate(90 3.5 3.5)" fill="#E60847"/>
<circle cx="55.5" cy="22.5" r="3.5" transform="rotate(90 55.5 22.5)" fill="#E60847"/>
<circle cx="38.5" cy="22.5" r="3.5" transform="rotate(90 38.5 22.5)" fill="#E60847"/>
<circle cx="20.5" cy="22.5" r="3.5" transform="rotate(90 20.5 22.5)" fill="#E60847"/>
<ellipse cx="73" cy="22.5" rx="3.5" ry="3" transform="rotate(90 73 22.5)" fill="#E60847"/>
<circle cx="3.5" cy="22.5" r="3.5" transform="rotate(90 3.5 22.5)" fill="#E60847"/>
<circle cx="142.5" cy="3.5" r="3.5" transform="rotate(90 142.5 3.5)" fill="#E60847"/>
<circle cx="125.5" cy="3.5" r="3.5" transform="rotate(90 125.5 3.5)" fill="#E60847"/>
<circle cx="107.5" cy="3.5" r="3.5" transform="rotate(90 107.5 3.5)" fill="#E60847"/>
<circle cx="159.5" cy="3.5" r="3.5" transform="rotate(90 159.5 3.5)" fill="#E60847"/>
<circle cx="90.5" cy="3.5" r="3.5" transform="rotate(90 90.5 3.5)" fill="#E60847"/>
<circle cx="142.5" cy="22.5" r="3.5" transform="rotate(90 142.5 22.5)" fill="#E60847"/>
<circle cx="125.5" cy="22.5" r="3.5" transform="rotate(90 125.5 22.5)" fill="#E60847"/>
<circle cx="107.5" cy="22.5" r="3.5" transform="rotate(90 107.5 22.5)" fill="#E60847"/>
<circle cx="159.5" cy="22.5" r="3.5" transform="rotate(90 159.5 22.5)" fill="#E60847"/>
<circle cx="90.5" cy="22.5" r="3.5" transform="rotate(90 90.5 22.5)" fill="#E60847"/>
</svg>
