<svg width="94" height="182" viewBox="0 0 94 182" fill="none" xmlns="http://www.w3.org/2000/svg">
<circle cx="62" cy="7" r="7" fill="#D9D9D9"/>
<circle cx="62" cy="103" r="7" fill="#D9D9D9"/>
<circle cx="7" cy="103" r="7" fill="#D9D9D9"/>
<circle cx="62" cy="31" r="7" fill="#D9D9D9"/>
<circle cx="62" cy="127" r="7" fill="#D9D9D9"/>
<circle cx="7" cy="127" r="7" fill="#D9D9D9"/>
<circle cx="62" cy="55" r="7" fill="#D9D9D9"/>
<circle cx="62" cy="151" r="7" fill="#D9D9D9"/>
<circle cx="7" cy="151" r="7" fill="#D9D9D9"/>
<circle cx="62" cy="79" r="7" fill="#D9D9D9"/>
<circle cx="62" cy="175" r="7" fill="#D9D9D9"/>
<circle cx="7" cy="175" r="7" fill="#D9D9D9"/>
<circle cx="87" cy="7" r="7" fill="#D9D9D9"/>
<circle cx="87" cy="103" r="7" fill="#D9D9D9"/>
<circle cx="32" cy="103" r="7" fill="#D9D9D9"/>
<circle cx="87" cy="31" r="7" fill="#D9D9D9"/>
<circle cx="87" cy="127" r="7" fill="#D9D9D9"/>
<circle cx="32" cy="127" r="7" fill="#D9D9D9"/>
<circle cx="87" cy="55" r="7" fill="#D9D9D9"/>
<circle cx="87" cy="151" r="7" fill="#D9D9D9"/>
<circle cx="32" cy="151" r="7" fill="#D9D9D9"/>
<circle cx="87" cy="79" r="7" fill="#D9D9D9"/>
<circle cx="87" cy="79" r="7" fill="#D9D9D9"/>
<circle cx="87" cy="175" r="7" fill="#D9D9D9"/>
<circle cx="32" cy="175" r="7" fill="#D9D9D9"/>
</svg>
